<svg id="Component_21_1" data-name="Component 21 – 1" xmlns="http://www.w3.org/2000/svg" width="33.617" height="33.617" viewBox="0 0 33.617 33.617">
  <g id="Group_15326" data-name="Group 15326" style="mix-blend-mode: normal;isolation: isolate">
    <path id="Path_1933" data-name="Path 1933" d="M16.808,0A16.808,16.808,0,1,1,0,16.808,16.808,16.808,0,0,1,16.808,0Z" fill="#f0e9ec"/>
    <g id="Group_12493" data-name="Group 12493" transform="translate(10.329 7.945)">
      <path id="Path_1914" data-name="Path 1914" d="M141.764,12.389a3.091,3.091,0,0,0,3.087-3.1l.01-6.195a3.1,3.1,0,0,0-6.195,0V9.292A3.1,3.1,0,0,0,141.764,12.389Z" transform="translate(-134.779 0)" fill="#8b254c"/>
      <path id="Path_1915" data-name="Path 1915" d="M65.606,192a5.289,5.289,0,0,1-10.577,0h-1.7a7.119,7.119,0,0,0,5.987,6.938v3.386h2v-3.386A7.119,7.119,0,0,0,67.3,192Z" transform="translate(-53.333 -183.366)" fill="#8b254c"/>
    </g>
  </g>
</svg>