<svg xmlns="http://www.w3.org/2000/svg" width="15.355" height="15.355" viewBox="0 0 15.355 15.355">
  <g id="Group_14155" data-name="Group 14155" transform="translate(-19.5 0.5)">
    <g id="Group_12494" data-name="Group 12494" transform="translate(20 0)">
      <g id="Group_10813" data-name="Group 10813" transform="translate(0 0)">
        <g id="Group_10812" data-name="Group 10812">
          <path id="Path_1916" data-name="Path 1916" d="M5.737,0a5.737,5.737,0,1,0,5.737,5.737A5.744,5.744,0,0,0,5.737,0Zm0,10.415a4.678,4.678,0,1,1,4.678-4.678A4.683,4.683,0,0,1,5.737,10.415Z" transform="translate(0 0)" fill="#7b2841" stroke="#7b2841" stroke-width="1"/>
        </g>
      </g>
      <g id="Group_10815" data-name="Group 10815" transform="translate(9.477 9.476)">
        <g id="Group_10814" data-name="Group 10814">
          <path id="Path_1917" data-name="Path 1917" d="M355.739,354.847l-3.617-3.617a.631.631,0,0,0-.892.892l3.617,3.617a.631.631,0,0,0,.892-.892Z" transform="translate(-351.046 -351.046)" fill="#7b2841" stroke="#7b2841" stroke-width="1"/>
        </g>
      </g>
    </g>
  </g>
</svg>
